<svg xmlns="http://www.w3.org/2000/svg" viewBox="0 0 512 512" width="100%" height="100%">
  <defs>
    <!-- Background Gradient (Luxurious Deep Purple-Black) -->
    <radialGradient id="bg-grad" cx="50%" cy="50%" r="50%">
      <stop offset="0%" stop-color="#2d1f47" />
      <stop offset="70%" stop-color="#0e081c" />
      <stop offset="100%" stop-color="#050308" />
    </radialGradient>

    <!-- Spade gold gradient (coords in the spade's own 64-unit space) -->
    <linearGradient id="spadeGold" x1="14" y1="10" x2="50" y2="58" gradientUnits="userSpaceOnUse">
      <stop offset="0" stop-color="#FCEFAF" />
      <stop offset="0.45" stop-color="#E9B949" />
      <stop offset="1" stop-color="#B8860B" />
    </linearGradient>

    <linearGradient id="gold-border-grad" x1="100%" y1="0%" x2="0%" y2="100%">
      <stop offset="0%" stop-color="#b37d14" />
      <stop offset="30%" stop-color="#ffe259" />
      <stop offset="70%" stop-color="#ffa751" />
      <stop offset="100%" stop-color="#ffe259" />
    </linearGradient>

    <filter id="shadow" x="-20%" y="-20%" width="140%" height="140%">
      <feDropShadow dx="0" dy="8" stdDeviation="6" flood-color="#000000" flood-opacity="0.6" />
    </filter>
  </defs>

  <!-- Background Circle with Gold Border -->
  <circle cx="256" cy="256" r="236" fill="url(#bg-grad)" stroke="url(#gold-border-grad)" stroke-width="12" filter="url(#shadow)" />

  <!-- Inner Subtle Gold Ring -->
  <circle cx="256" cy="256" r="218" fill="none" stroke="url(#gold-border-grad)" stroke-width="2" opacity="0.35" stroke-dasharray="8 4" />

  <!-- Brand Spade (path in 64-unit space, scaled to fill the badge) -->
  <g transform="translate(25.6 -6.8) scale(7.2)">
    <path d="M32 12C27 22 12 29 12 40c0 6 4 10 10 10 3 0 6-1 8-4 0 5-2 9-7 11h18c-5-2-7-6-7-11 2 3 5 4 8 4 6 0 10-4 10-10 0-11-15-18-20-28Z" fill="url(#spadeGold)" />
  </g>
</svg>
