<svg xmlns="http://www.w3.org/2000/svg" viewBox="0 0 576 512" width="24" height="24" fill="#8a94a6" role="img" aria-label="收藏">
  <path d="M287.9 0c9.2 0 17.6 5.2 21.6 13.5l68.6 141.3 153.2 22.6c9 1.3 16.5 7.6 19.3 16.3s.5 18.1-5.9 24.5L433.6 328.4l26.2 155.6c1.5 9-2.2 18.1-9.7 23.5s-17.3 6-25.3 1.7l-137-73.2L151 509.1c-8.1 4.3-17.9 3.7-25.3-1.7s-11.2-14.5-9.7-23.5l26.2-155.6L31.3 218.2c-6.5-6.4-8.7-15.9-5.9-24.5s10.3-14.9 19.3-16.3l153.2-22.6L246.3 13.5C250.4 5.2 258.7 0 287.9 0zM287.9 78.9L235.4 187.2c-3.5 7.1-10.2 12-18.1 13.1L99 217.3l85.9 85.7c5.5 5.5 8.1 13.3 6.8 21L171.4 443.7l105.2-56.2c7.1-3.8 15.6-3.8 22.6 0l105.2 56.2L384.2 324c-1.3-7.7 1.2-15.5 6.8-21l85.9-85.7L358.6 200.3c-7.9-1.1-14.6-6-18.1-13.1L287.9 78.9z"/>
</svg>
